<?xml version="1.0" encoding="UTF-8"?><svg id="Layer_2" xmlns="http://www.w3.org/2000/svg" viewBox="0 0 119.54 119.54"><defs><style>.cls-1{fill:#fff;}.cls-2{fill:#7e90ff;}.cls-3{fill:none;stroke:#fff;stroke-miterlimit:10;stroke-width:1.61px;}</style></defs><g id="Layer_1-2"><g><circle class="cls-2" cx="59.77" cy="59.77" r="59.77"/><g><path class="cls-1" d="M55.96,85.1c-1.11-.31-1.86-.98-2.3-1.84-.44,.96-1.23,1.72-2.39,2.06l-.64-1.13c1.48-.44,2.19-1.5,2.29-2.56h-1.92v-1.16h5.24v1.16h-1.89c.1,.98,.81,1.96,2.25,2.37l-.63,1.11Zm2.86,3.86v1.1h-6.65v-2.76h5.04v-.6h-5.05v-1.09h6.42v2.72h-5.04v.64h5.28Zm-.25-3.76h-1.38v-5.19h1.38v5.19Z"/><path class="cls-1" d="M66.04,86.49c-2,.4-4.26,.44-5.91,.45l-.15-1.11c.68,0,1.46,0,2.29-.03v-.58c-1.02-.17-1.66-.71-1.66-1.51,0-.98,.93-1.57,2.35-1.57s2.34,.59,2.34,1.57c0,.79-.64,1.34-1.65,1.51v.52c.78-.05,1.55-.12,2.28-.23l.1,.99Zm-.34-4.62h-5.47v-1.03h2.05v-.87h1.38v.87h2.04v1.03Zm-2.99,6.94h5.35v1.16h-6.73v-2.54h1.38v1.39Zm.26-4.51c.65,0,1.03-.21,1.03-.59s-.39-.6-1.03-.6-1.05,.21-1.05,.6,.4,.59,1.05,.59Zm5.98-.98v1.19h-1.21v3.41h-1.38v-7.92h1.38v3.32h1.21Z"/></g><g><path class="cls-3" d="M34.45,25.97l5.65,8.18c-1.93,2.34-3.45,5.56-3.45,9.32,0,12.57,12.66,12.87,18.71,16.4l1.1,6.56"/><path class="cls-3" d="M85.09,25.97l-5.65,8.18c1.93,2.34,3.45,5.56,3.45,9.32,0,12.57-12.66,12.87-18.71,16.4l-1.1,6.56"/><path class="cls-3" d="M81.79,22.69l-8.17,6.19c-3.62-2.03-8.94-2.91-13.85-2.91s-10.22,.88-13.85,2.91l-8.17-6.19"/></g></g></g></svg>