<?xml version="1.0" encoding="UTF-8"?><svg id="Layer_2" xmlns="http://www.w3.org/2000/svg" viewBox="0 0 119.54 119.54"><defs><style>.cls-1{fill:#fff;}.cls-2{fill:#c080ff;}.cls-3{fill:none;stroke:#fff;stroke-miterlimit:10;stroke-width:1.61px;}</style></defs><g id="Layer_1-2"><g><circle class="cls-2" cx="59.77" cy="59.77" r="59.77"/><g><path class="cls-1" d="M58.63,80.01v6h-1.38v-1.28h-2.09c-.46,.52-1.15,.84-1.92,.84-1.42,0-2.53-1.06-2.53-2.52s1.11-2.51,2.53-2.51c.78,0,1.47,.32,1.93,.84h2.08v-1.36h1.38Zm-4.16,3.04c0-.79-.52-1.27-1.23-1.27s-1.22,.47-1.22,1.27,.52,1.28,1.22,1.28,1.23-.47,1.23-1.28Zm-2.39,3.42h6.55v3.69h-1.38v-2.54h-5.17v-1.14Zm5.17-2.89v-1.04h-1.53c.03,.17,.05,.33,.05,.52,0,.18-.02,.35-.05,.53h1.53Z"/><path class="cls-1" d="M65.77,82.05h-5.67v-1.14h2.13v-.95h1.39v.95h2.14v1.14Zm-2.83,4.05c-1.38,0-2.36-.76-2.36-1.87s.98-1.86,2.36-1.86,2.36,.76,2.36,1.86-.97,1.87-2.36,1.87Zm-1.67,.68h6.42v3.38h-1.38v-2.21h-5.04v-1.17Zm1.67-1.78c.62,0,1.04-.25,1.04-.77s-.43-.76-1.04-.76-1.05,.25-1.05,.76,.42,.77,1.05,.77Zm6.02-1.18h-1.28v2.54h-1.38v-6.34h1.38v2.6h1.28v1.2Z"/></g><g><path class="cls-3" d="M46.05,55.92c10.62,6.29,24.21,2.56,30.34-8.34,6.13-10.89,2.49-24.82-8.13-31.11"/><line class="cls-3" x1="70.01" y1="13.72" x2="44.28" y2="59.43"/><path class="cls-3" d="M61.33,52.42c9.05-2.49,14.48-11.76,12.14-20.72-2.34-8.96-11.57-14.2-20.62-11.72-9.05,2.49-14.48,11.76-12.14,20.72,2.34,8.96,11.57,14.2,20.62,11.72Z"/><path class="cls-3" d="M48.83,50.99c3.67,2.17,10.37-2.69,14.97-10.86,4.6-8.17,5.35-16.55,1.69-18.72-3.67-2.17-10.37,2.69-14.97,10.86-4.6,8.17-5.35,16.55-1.69,18.72Z"/><line class="cls-3" x1="67.98" y1="48.52" x2="41.64" y2="32.93"/><line class="cls-3" x1="73.82" y1="38.14" x2="47.49" y2="22.55"/><line class="cls-3" x1="57.97" y1="59.48" x2="57.97" y2="64.28"/><path class="cls-3" d="M68.5,69.08h-21.05c0-2.65,2.09-4.8,4.68-4.8h11.7c2.58,0,4.68,2.15,4.68,4.8h0Z"/></g></g></g></svg>