<?xml version="1.0" encoding="UTF-8"?><svg id="Layer_2" xmlns="http://www.w3.org/2000/svg" viewBox="0 0 119.54 119.54"><defs><style>.cls-1{fill:#fff;}.cls-2{fill:#ff7ef6;}.cls-3{stroke-width:1.61px;}.cls-3,.cls-4{fill:none;stroke:#fff;stroke-miterlimit:10;}.cls-4{stroke-width:.84px;}</style></defs><g id="Layer_1-2"><g><circle class="cls-2" cx="59.77" cy="59.77" r="59.77"/><g><path class="cls-1" d="M46.37,86.08c-1.07-.35-1.8-1.08-2.24-1.98-.43,.99-1.2,1.77-2.32,2.16l-.7-1.13c1.6-.53,2.3-1.86,2.3-3.12v-.12h-1.93v-1.14h5.24v1.14h-1.9v.12c0,1.19,.7,2.43,2.26,2.97l-.7,1.11Zm2.94,2.73v1.16h-6.65v-3.29h1.38v2.13h5.27Zm-.24-1.47h-1.39v-7.33h1.39v7.33Z"/><path class="cls-1" d="M55.22,82.17h-4.68v-1.12h1.66v-.92h1.36v.92h1.66v1.12Zm-2.32,3.86c-1.22,0-2.08-.73-2.08-1.77s.86-1.76,2.08-1.76,2.07,.71,2.07,1.76-.86,1.77-2.07,1.77Zm0-1.03c.51,0,.85-.26,.85-.74s-.33-.73-.85-.73-.86,.25-.86,.73,.34,.74,.86,.74Zm5.95,3.31c0,1.18-1.24,1.84-3.31,1.84s-3.31-.66-3.31-1.84,1.24-1.85,3.31-1.85,3.31,.67,3.31,1.85Zm-1.38,0c0-.53-.65-.76-1.93-.76s-1.93,.23-1.93,.76,.65,.76,1.93,.76,1.93-.23,1.93-.76Zm-.69-2.28h-1.29v-5.83h1.29v2.31h.71v-2.5h1.31v6.34h-1.31v-2.66h-.71v2.34Z"/><path class="cls-1" d="M65.68,85.36c-1.18,.28-2.28,.33-4.41,.33h-.8v-4.87h4.31v1.15h-2.94v2.55c1.71-.01,2.67-.08,3.71-.31l.14,1.14Zm-2.83,3.46h5.17v1.16h-6.55v-3.4h1.38v2.24Zm6.1-6.04v1.19h-1.28v3.38h-1.38v-7.33h1.38v2.76h1.28Z"/><path class="cls-1" d="M74.61,80.23h1.29v9.47h-1.29v-3.32h-1.34v-1.17h1.34v-1.38h-1.16c-.43,1.67-1.39,3.08-3.19,4.2l-.78-1.01c1.9-1.22,2.74-2.68,2.92-4.67h-2.37v-1.16h3.74c0,.52-.03,1-.08,1.47h.93v-2.45Zm3.28-.23v10.14h-1.31v-10.14h1.31Z"/></g><g><g><path class="cls-3" d="M34.79,26.13l5.57,8.07c-1.91,2.31-3.4,5.48-3.4,9.19,0,12.39,12.49,12.69,18.46,16.18l1.09,6.47"/><path class="cls-3" d="M84.75,26.13l-5.57,8.07c1.91,2.31,3.4,5.48,3.4,9.19,0,12.39-12.49,12.69-18.46,16.18l-1.09,6.47"/><path class="cls-3" d="M81.49,22.89l-8.06,6.11c-3.58-2-8.82-2.87-13.66-2.87s-10.08,.87-13.66,2.87l-8.06-6.11"/></g><g><path class="cls-4" d="M71.18,46.59c-.43-.18-.89-.23-1.3-.14-.02-.02-.05-.04-.07-.05-.42-.32-1.03-.25-1.35,.17-.33,.42-.25,1.02,.17,1.34,.06,.05,.12,.11,.16,.19,.15,.27,.4,.48,.71,.52,.32,.04,.6-.06,.81-.29,.01,0,.05,0,.11,.02,.18,.08,.29,.25,.31,.36-.26,.07-.48,.25-.6,.49-.14,.27-.14,.59,0,.86,0,.02,.02,.03,.02,.05-.24-.07-.5-.03-.72,.09-.21,.12-.37,.31-.45,.54-.02,0-.03-.01-.06-.02-.09-.04-.18-.12-.24-.21-.15-.21-.36-.37-.61-.42-.26-.04-.5,0-.71,.16-.01,0-.05,0-.12-.03-.23-.1-.34-.34-.37-.35,.35-.25,.49-.7,.35-1.11-.02-.06-.02-.1-.02-.12,.02-.53-.39-.98-.92-1-.53-.03-.98,.38-1.01,.91,0,.09,0,.18,0,.26-.1,.17-.18,.35-.23,.55-.24,1.01,.39,2.16,1.44,2.61,.37,.16,.76,.21,1.13,.16,.17,.14,.36,.25,.55,.33,.29,.12,.58,.18,.87,.18s.6-.07,.86-.2c.21-.11,.4-.26,.55-.43,.27-.03,.53-.1,.76-.24,.43-.25,.74-.66,.85-1.15,.04-.18,.06-.36,.05-.54,.25-.24,.43-.55,.52-.91,.24-1.01-.39-2.16-1.44-2.61Z"/><path class="cls-4" d="M65.37,41.58c0-.09,0-.18-.02-.27,.09-.17,.16-.36,.2-.56,.18-1.02-.5-2.13-1.56-2.53-.38-.14-.78-.18-1.14-.11-.18-.13-.37-.23-.57-.3-.59-.22-1.23-.18-1.73,.1-.21,.12-.38,.27-.53,.45-.27,.04-.52,.13-.75,.27-.42,.27-.71,.69-.8,1.2-.03,.17-.04,.36-.02,.54-.24,.25-.41,.57-.47,.93-.19,1.03,.5,2.14,1.56,2.53,.44,.16,.89,.18,1.3,.07,.02,.02,.05,.04,.07,.05,.17,.12,.36,.17,.55,.17,.3,0,.6-.14,.79-.41,.3-.43,.2-1.03-.24-1.33-.06-.04-.12-.11-.17-.18-.16-.26-.42-.45-.73-.47-.31-.02-.59,.09-.79,.33,0,0-.05,0-.12-.02-.19-.07-.3-.24-.33-.34,.26-.08,.47-.27,.58-.53,.12-.28,.1-.59-.05-.86,0-.02-.02-.03-.02-.04,.26,.05,.53,0,.75-.14,.19-.13,.33-.33,.39-.55,.02,0,.04,0,.06,.02,.09,.03,.18,.1,.25,.2,.16,.21,.37,.36,.63,.39,.26,.03,.5-.03,.71-.19,.01,0,.05,0,.11,.02,.23,.09,.36,.33,.39,.34-.34,.27-.45,.73-.28,1.13,.02,.04,.02,.07,.02,.1,0,.53,.43,.96,.96,.96s.96-.43,.96-.96Z"/><path class="cls-4" d="M77.06,38.34c-.42-.33-.9-.51-1.38-.51-.15-.23-.33-.44-.55-.61-.53-.43-1.18-.6-1.79-.47-.43,.09-.81,.32-1.1,.66-.6-.07-1.18,.12-1.62,.57-.37,.38-.36,.99,.02,1.35,.38,.37,.99,.36,1.36-.02,0,0,.07,0,.15,.06,.26,.19,.61,.24,.92,.12s.53-.38,.6-.71c.02-.09,.03-.12,.06-.17,.01,0,.08,0,.18,.08,.13,.1,.22,.27,.26,.45,.07,.31,.29,.57,.59,.69,.3,.12,.64,.08,.9-.11,0,0,.08,0,.17,.08,.26,.21,.35,.63,.21,.88-.3-.03-.59,.1-.79,.32-.2,.22-.28,.52-.23,.81,.03,.14,.02,.28-.05,.4,0,0-.06,0-.13-.05-.23-.15-.51-.19-.78-.12-.26,.07-.48,.25-.61,.49-.01,.03-.03,.05-.04,.08-.17,.41-.03,.9,.36,1.16,.07,.05,.14,.08,.22,.11,.31,.16,.64,.24,.97,.24,.17,0,.34-.02,.51-.07,.53-.14,.97-.5,1.24-1.01,.11-.2,.18-.43,.22-.66,.36-.18,.66-.48,.86-.87,.53-1.02,.21-2.43-.74-3.2Z"/></g></g></g></g></svg>