<?xml version="1.0" encoding="UTF-8"?><svg id="Layer_2" xmlns="http://www.w3.org/2000/svg" viewBox="0 0 119.54 119.54"><defs><style>.cls-1{fill:#fff;}.cls-2{fill:#7cbded;}.cls-3{fill:none;stroke:#fff;stroke-miterlimit:10;stroke-width:1.61px;}</style></defs><g id="Layer_1-2"><g><circle class="cls-2" cx="59.77" cy="59.77" r="59.77"/><g><path class="cls-1" d="M54.34,83.17c0,1.46,.76,3.11,2.34,3.83l-.73,1.11c-1.09-.47-1.85-1.44-2.28-2.6-.43,1.22-1.2,2.25-2.3,2.77l-.74-1.11c1.58-.75,2.33-2.46,2.33-4v-.35h-2.01v-1.16h2.01v-1.41h1.38v1.41h1.97v1.16h-1.97v.35Zm4.23-3.16v10.13h-1.38v-10.13h1.38Z"/><path class="cls-1" d="M68.82,87.84v1.19h-8.73v-1.19h2.22v-1.55h-1.2v-3.4h5.37v-1.08h-5.38v-1.16h6.74v3.37h-5.36v1.11h5.58v1.16h-1.35v1.55h2.11Zm-5.15,0h1.68v-1.55h-1.68v1.55Z"/></g><g><path class="cls-3" d="M59.78,13.33c-2.13,3-16.32,9.14-21.9,9.14v21.71c0,10.21,20.67,21.38,21.88,21.7,1.22-.32,21.88-12.27,21.88-20.56V22.48c-6.08,0-19.74-6.15-21.87-9.14Z"/><path class="cls-3" d="M72.48,51.37c2.6-2.44,4.57-5.03,4.57-7.28V26.2c-4.8,0-15.59-4.81-17.27-7.15-.68,.95-2.91,2.3-5.63,3.57"/><path class="cls-3" d="M49.34,24.6c-2.66,.95-5.22,1.61-6.85,1.61v16.99c0,7.99,16.32,16.74,17.28,17,.44-.11,4.03-2.11,7.82-4.85"/><polygon class="cls-3" points="62.07 37.33 62.07 32.76 57.47 32.76 57.47 37.33 52.86 37.33 52.86 41.91 57.47 41.91 57.47 46.48 62.07 46.48 62.07 41.91 66.68 41.91 66.68 37.33 62.07 37.33"/></g></g></g></svg>