<?xml version="1.0" encoding="UTF-8"?><svg id="Layer_2" xmlns="http://www.w3.org/2000/svg" viewBox="0 0 119.54 119.54"><defs><style>.cls-1{fill:#fff;}.cls-2{fill:#7e90ff;}.cls-3{fill:none;stroke:#fff;stroke-miterlimit:10;stroke-width:1.61px;}</style></defs><g id="Layer_1-2"><g><circle class="cls-2" cx="59.77" cy="59.77" r="59.77"/><g><path class="cls-1" d="M41.27,85.62c-1.01-.35-1.71-1.04-2.12-1.89-.42,.99-1.16,1.77-2.26,2.18l-.72-1.14c1.61-.56,2.26-1.91,2.26-3.29v-.91h1.4v1.04c0,1.22,.65,2.41,2.16,2.9l-.72,1.12Zm2.73,2.56c0,1.23-1.25,1.96-3.25,1.96s-3.26-.73-3.26-1.96,1.25-1.95,3.26-1.95,3.25,.73,3.25,1.95Zm-1.37,0c0-.56-.66-.82-1.88-.82s-1.89,.26-1.89,.82,.66,.84,1.89,.84,1.88-.26,1.88-.84Zm2.54-5.82v1.2h-1.28v2.44h-1.38v-5.99h1.38v2.34h1.28Z"/><path class="cls-1" d="M47.46,86.67c.9-.02,1.71-.08,2.63-.25l.1,1.18c-1.17,.23-2.19,.28-3.43,.28h-.67v-6.69h3.56v1.18h-2.21v4.31Zm6.63-6.67v10.14h-1.31v-5.07h-.87v4.6h-1.29v-9.47h1.29v3.71h.87v-3.91h1.31Z"/><path class="cls-1" d="M59.46,85.61c-.79-.33-1.35-.94-1.69-1.66-.35,.86-.94,1.59-1.83,1.98l-.73-1.12c1.35-.62,1.87-1.87,1.87-3.02v-1.18h1.33v1.18c0,1.09,.52,2.18,1.79,2.72l-.73,1.1Zm4.13,2.64c0,1.19-1.29,1.89-3.3,1.89s-3.32-.71-3.32-1.89,1.3-1.89,3.32-1.89,3.3,.71,3.3,1.89Zm-1.38,0c0-.54-.69-.8-1.92-.8s-1.94,.26-1.94,.8,.69,.8,1.94,.8,1.92-.26,1.92-.8Zm-.72-2.37h-1.29v-5.69h1.29v2.28h.75v-2.46h1.31v6.19h-1.31v-2.56h-.75v2.24Z"/><path class="cls-1" d="M73.57,85.28v1.17h-8.71v-1.17h3.65v-1.39h1.38v1.39h3.68Zm-8.32-1.81c1.87-.22,2.82-1.05,2.99-1.87h-2.58v-1.15h7.13v1.15h-2.6c.17,.82,1.11,1.65,2.99,1.87l-.49,1.14c-1.79-.21-2.97-1-3.47-2.04-.5,1.04-1.67,1.84-3.46,2.04l-.5-1.14Zm2.05,5.35h5.29v1.16h-6.67v-2.89h1.38v1.74Z"/><path class="cls-1" d="M80.93,85.09v.71h1.09v2.61h-5.27v.57h5.52v1.09h-6.89v-2.66h5.28v-.54h-5.3v-1.07h1.18v-.71h-2.17v-1.14h8.72v1.14h-2.15Zm-5.69-3.27c0-1.11,1.29-1.73,3.48-1.73s3.49,.62,3.49,1.73-1.29,1.73-3.49,1.73-3.48-.61-3.48-1.73Zm1.43,0c0,.47,.66,.67,2.05,.67s2.06-.2,2.06-.67-.66-.66-2.06-.66-2.05,.21-2.05,.66Zm2.87,3.27h-1.63v.71h1.63v-.71Z"/></g><g><rect class="cls-3" x="29.49" y="25.87" width="60.57" height="37.38" rx="3" ry="3"/><polyline class="cls-3" points="40.02 47.06 45.29 47.06 49.24 38.33 53.19 52.04 57.14 43.32 59.77 47.06 66.35 47.06"/><rect class="cls-3" x="36.07" y="32.1" width="34.23" height="24.92"/><line class="cls-3" x1="75.57" y1="32.1" x2="80.84" y2="32.1"/><line class="cls-3" x1="75.57" y1="37.09" x2="80.84" y2="37.09"/><line class="cls-3" x1="75.57" y1="42.07" x2="80.84" y2="42.07"/><line class="cls-3" x1="75.57" y1="57.02" x2="80.84" y2="57.02"/></g></g></g></svg>