<?xml version="1.0" encoding="UTF-8"?><svg id="Layer_2" xmlns="http://www.w3.org/2000/svg" viewBox="0 0 119.54 119.54"><defs><style>.cls-1{fill:#fff;}.cls-2{fill:#c080ff;}.cls-3{fill:none;stroke:#fff;stroke-miterlimit:10;stroke-width:1.61px;}</style></defs><g id="Layer_1-2"><g><circle class="cls-2" cx="59.77" cy="59.77" r="59.77"/><g><path class="cls-1" d="M30.58,81.04h2.54c1.71,0,3.03,.64,3.03,2.56s-1.33,2.7-2.99,2.7h-1.03v2.89h-1.55v-8.15Zm2.48,3.97c1.07,0,1.58-.47,1.58-1.41s-.56-1.27-1.63-1.27h-.88v2.67h.93Z"/><path class="cls-1" d="M37.07,85.16c0-2.68,1.64-4.26,3.6-4.26,.98,0,1.77,.5,2.27,1.04l-.8,1.04c-.4-.4-.85-.68-1.43-.68-1.17,0-2.05,1.06-2.05,2.81s.79,2.84,2.02,2.84c.67,0,1.18-.33,1.6-.8l.82,1.01c-.64,.78-1.46,1.2-2.47,1.2-1.95,0-3.54-1.47-3.54-4.19Z"/><path class="cls-1" d="M43.8,87.52c0-1.32,1.01-2.01,3.38-2.28-.03-.61-.28-1.07-1-1.07-.54,0-1.07,.25-1.61,.58l-.55-1.07c.69-.45,1.53-.81,2.45-.81,1.48,0,2.25,.94,2.25,2.72v3.6h-1.25l-.1-.66h-.04c-.51,.46-1.1,.81-1.77,.81-1.04,0-1.73-.78-1.73-1.83Zm3.38-.04v-1.24c-1.43,.19-1.91,.61-1.91,1.15,0,.48,.32,.69,.77,.69s.76-.22,1.14-.6Z"/><path class="cls-1" d="M57.36,86.08c-1.07-.35-1.8-1.08-2.24-1.98-.43,.99-1.2,1.77-2.32,2.16l-.7-1.13c1.6-.53,2.3-1.86,2.3-3.12v-.12h-1.93v-1.14h5.24v1.14h-1.9v.12c0,1.19,.7,2.43,2.26,2.97l-.7,1.11Zm2.94,2.73v1.16h-6.65v-3.29h1.38v2.13h5.27Zm-.24-1.47h-1.39v-7.33h1.39v7.33Z"/><path class="cls-1" d="M66.21,82.17h-4.68v-1.12h1.66v-.92h1.36v.92h1.66v1.12Zm-2.32,3.86c-1.22,0-2.08-.73-2.08-1.77s.86-1.76,2.08-1.76,2.07,.71,2.07,1.76-.86,1.77-2.07,1.77Zm0-1.03c.51,0,.85-.27,.85-.74s-.33-.73-.85-.73-.86,.25-.86,.73,.34,.74,.86,.74Zm5.95,3.31c0,1.18-1.24,1.84-3.31,1.84s-3.31-.66-3.31-1.84,1.24-1.85,3.31-1.85,3.31,.67,3.31,1.85Zm-1.38,0c0-.53-.65-.76-1.93-.76s-1.93,.23-1.93,.76,.65,.76,1.93,.76,1.93-.23,1.93-.76Zm-.69-2.28h-1.29v-5.83h1.29v2.31h.71v-2.5h1.31v6.34h-1.31v-2.66h-.71v2.34Z"/><path class="cls-1" d="M76.67,85.36c-1.18,.28-2.28,.33-4.41,.33h-.8v-4.87h4.31v1.15h-2.94v2.55c1.71,0,2.67-.08,3.71-.31l.14,1.14Zm-2.83,3.46h5.17v1.16h-6.55v-3.4h1.38v2.24Zm6.1-6.04v1.19h-1.28v3.38h-1.38v-7.33h1.38v2.76h1.28Z"/><path class="cls-1" d="M85.6,80.23h1.29v9.47h-1.29v-3.32h-1.34v-1.17h1.34v-1.38h-1.16c-.43,1.67-1.39,3.08-3.19,4.2l-.78-1.01c1.9-1.22,2.74-2.69,2.92-4.67h-2.37v-1.15h3.74c0,.52-.03,1-.08,1.47h.93v-2.45Zm3.28-.23v10.14h-1.31v-10.14h1.31Z"/></g><g><path class="cls-3" d="M64.88,57.47c1.89-1.61,4.28-1.21,6.5-.67,2.22,.54,2.28,3.87,1.94,5.84-.35,1.97-1.59,8.12-8.52,7.94-1.42-.05-2.22-1.07-2.33-1.58s.55-9.46,2.41-11.54Z"/><path class="cls-3" d="M54.65,57.47c-1.89-1.61-4.28-1.21-6.5-.67-2.22,.54-2.28,3.87-1.94,5.84,.35,1.97,1.59,8.12,8.52,7.94,1.42-.05,2.22-1.07,2.33-1.58s-.55-9.46-2.41-11.54Z"/><g><path class="cls-3" d="M34.12,21.72l5.72,8.35c-1.96,2.39-3.49,5.67-3.49,9.5,0,12.82,12.83,13.13,18.96,16.73l1.12,6.69"/><path class="cls-3" d="M85.42,21.72l-5.72,8.35c1.96,2.39,3.49,5.67,3.49,9.5,0,12.82-12.83,13.13-18.96,16.73l-1.12,6.69"/><path class="cls-3" d="M82.08,18.37l-8.28,6.32c-3.67-2.07-9.05-2.97-14.03-2.97s-10.36,.9-14.03,2.97l-8.28-6.32"/></g></g></g></g></svg>