<?xml version="1.0" encoding="UTF-8"?><svg id="Layer_2" xmlns="http://www.w3.org/2000/svg" viewBox="0 0 119.54 119.54"><defs><style>.cls-1{fill:#fff;}.cls-2{fill:#ff7ef6;}.cls-3{fill:none;stroke:#fff;stroke-miterlimit:10;stroke-width:1.61px;}</style></defs><g id="Layer_1-2"><g><circle class="cls-2" cx="59.77" cy="59.77" r="59.77"/><g><path class="cls-1" d="M21.82,81.04h1.55v8.15h-1.55v-8.15Z"/><path class="cls-1" d="M25.04,83.04h1.25l.11,.81h.03c.51-.53,1.11-.97,1.9-.97,1.27,0,1.81,.92,1.81,2.47v3.84h-1.54v-3.64c0-.96-.25-1.29-.83-1.29-.48,0-.78,.24-1.21,.69v4.23h-1.54v-6.16Z"/><path class="cls-1" d="M31.08,88.48l.7-1.01c.52,.43,1.02,.67,1.57,.67,.58,0,.85-.27,.85-.65,0-.46-.61-.67-1.22-.92-.74-.3-1.57-.77-1.57-1.8,0-1.1,.85-1.88,2.18-1.88,.85,0,1.51,.38,1.99,.76l-.69,.98c-.42-.32-.83-.53-1.25-.53-.53,0-.78,.24-.78,.59,0,.45,.54,.62,1.16,.86,.77,.31,1.63,.71,1.63,1.86,0,1.08-.81,1.95-2.33,1.95-.78,0-1.64-.36-2.23-.87Z"/><path class="cls-1" d="M36.64,86.89v-3.85h1.54v3.64c0,.95,.25,1.29,.82,1.29,.48,0,.79-.22,1.19-.77v-4.16h1.54v6.16h-1.25l-.11-.88h-.04c-.5,.63-1.07,1.03-1.86,1.03-1.26,0-1.81-.92-1.81-2.46Z"/><path class="cls-1" d="M47.17,84.31h-2.11v4.88h-1.54v-4.88h-.78v-1.2l.78-.06v-.43c0-1.27,.62-2.23,2.11-2.23,.46,0,.89,.11,1.17,.23l-.28,1.2c-.21-.1-.41-.15-.71-.15-.45,0-.75,.32-.75,.96v.42h2.11v-.5c0-1.29,.56-2.28,2.03-2.28,.46,0,.86,.11,1.12,.21l-.28,1.2c-.21-.09-.43-.13-.63-.13-.46,0-.71,.29-.71,.97v.53h1.11v1.28h-1.11v4.88h-1.53v-4.88Zm3.5-3.16c0-.53,.36-.88,.89-.88s.9,.35,.9,.88-.38,.89-.9,.89-.89-.35-.89-.89Zm.12,1.88h1.54v6.16h-1.54v-6.16Z"/><path class="cls-1" d="M53.5,86.12c0-2.05,1.4-3.23,2.99-3.23,.72,0,1.28,.3,1.7,.68l-.73,1.04c-.29-.26-.56-.41-.89-.41-.9,0-1.5,.76-1.5,1.91s.62,1.91,1.45,1.91c.42,0,.82-.21,1.14-.49l.62,1.07c-.56,.52-1.28,.75-1.92,.75-1.62,0-2.85-1.19-2.85-3.23Z"/><path class="cls-1" d="M59.15,81.16c0-.53,.37-.88,.9-.88s.89,.35,.89,.88-.37,.89-.89,.89-.9-.35-.9-.89Zm.13,1.88h1.54v6.16h-1.54v-6.16Z"/><path class="cls-1" d="M61.98,86.12c0-1.99,1.34-3.23,2.73-3.23,1.61,0,2.45,1.24,2.45,2.94,0,.31-.03,.61-.07,.75h-3.61c.13,1.01,.75,1.54,1.62,1.54,.48,0,.9-.15,1.32-.43l.52,.99c-.57,.42-1.32,.68-2.04,.68-1.64,0-2.92-1.2-2.92-3.23Zm3.86-.63c0-.82-.36-1.35-1.11-1.35-.62,0-1.16,.46-1.28,1.35h2.38Z"/><path class="cls-1" d="M68.32,83.04h1.25l.11,.81h.03c.51-.53,1.11-.97,1.9-.97,1.27,0,1.81,.92,1.81,2.47v3.84h-1.54v-3.64c0-.96-.25-1.29-.83-1.29-.48,0-.78,.24-1.21,.69v4.23h-1.54v-6.16Z"/><path class="cls-1" d="M75.13,87.04v-2.73h-.83v-1.2l.91-.08,.18-1.66h1.27v1.66h1.44v1.28h-1.44v2.73c0,.71,.27,1.04,.79,1.04,.19,0,.42-.07,.58-.13l.25,1.18c-.31,.11-.72,.23-1.23,.23-1.39,0-1.92-.94-1.92-2.31Z"/><path class="cls-1" d="M83.08,81.04h1.82l2.49,8.15h-1.62l-.54-2.09h-2.51l-.54,2.09h-1.57l2.48-8.15Zm-.03,4.8h1.84l-.23-.89c-.24-.85-.45-1.78-.67-2.66h-.05c-.2,.89-.43,1.81-.66,2.66l-.23,.89Z"/><path class="cls-1" d="M88.19,81.04h2.12c2.36,0,3.83,1.3,3.83,4.05s-1.46,4.1-3.74,4.1h-2.21v-8.15Zm2.03,6.84c1.44,0,2.34-.81,2.34-2.79s-.9-2.74-2.34-2.74h-.48v5.53h.48Z"/><path class="cls-1" d="M96.77,82.41h-2.17v-1.37h5.92v1.37h-2.19v6.79h-1.55v-6.79Z"/></g><g><path class="cls-3" d="M74.53,65.62c-4.18,2.9-9.27,4.6-14.76,4.6-14.27,0-25.83-11.49-25.83-25.66,0-6.48,2.42-12.41,6.42-16.93l38.83,33.85c3.99-4.52,6.42-10.44,6.42-16.93,0-14.17-11.56-25.66-25.83-25.66-5.49,0-10.58,1.7-14.76,4.6"/><polygon class="cls-3" points="75.27 39.43 64.94 39.43 64.94 29.17 54.6 29.17 54.6 39.43 44.27 39.43 44.27 49.7 54.6 49.7 54.6 59.96 64.94 59.96 64.94 49.7 75.27 49.7 75.27 39.43"/></g></g></g></svg>