<?xml version="1.0" encoding="UTF-8"?><svg id="Layer_2" xmlns="http://www.w3.org/2000/svg" viewBox="0 0 119.54 119.54"><defs><style>.cls-1{fill:#fff;}.cls-2{fill:#7cbded;}.cls-3{fill:none;stroke:#fff;stroke-miterlimit:10;stroke-width:1.61px;}</style></defs><g id="Layer_1-2"><g><circle class="cls-2" cx="59.77" cy="59.77" r="59.77"/><g><path class="cls-1" d="M19.48,81.04h4.75v1.37h-3.2v1.88h2.72v1.36h-2.72v2.18h3.31v1.36h-4.86v-8.15Z"/><path class="cls-1" d="M25.39,87.52c0-1.32,1.01-2.01,3.38-2.28-.03-.61-.28-1.07-1-1.07-.54,0-1.07,.25-1.61,.58l-.55-1.07c.69-.45,1.53-.81,2.45-.81,1.48,0,2.25,.94,2.25,2.72v3.6h-1.25l-.1-.66h-.04c-.51,.46-1.1,.81-1.77,.81-1.04,0-1.73-.78-1.73-1.83Zm3.38-.04v-1.24c-1.43,.19-1.91,.61-1.91,1.15,0,.48,.32,.69,.77,.69s.76-.22,1.14-.6Z"/><path class="cls-1" d="M31.75,83.04h1.25l.11,1.09h.03c.43-.8,1.06-1.24,1.66-1.24,.32,0,.51,.05,.69,.13l-.26,1.4c-.21-.07-.38-.1-.62-.1-.46,0-1.01,.32-1.34,1.21v3.67h-1.54v-6.16Z"/><path class="cls-1" d="M36.21,87.47v-7.05h1.54v7.12c0,.37,.16,.49,.3,.49,.06,0,.1,0,.21-.02l.19,1.2c-.18,.08-.43,.14-.79,.14-1.07,0-1.44-.74-1.44-1.88Z"/><path class="cls-1" d="M39.11,91.55l.28-1.24c.1,.03,.27,.08,.41,.08,.6,0,.93-.4,1.1-.94l.1-.36-2.28-6.05h1.55l.93,2.86c.18,.55,.32,1.14,.49,1.74h.05c.14-.57,.28-1.17,.42-1.74l.81-2.86h1.47l-2.08,6.35c-.51,1.45-1.14,2.29-2.45,2.29-.34,0-.57-.04-.8-.12Z"/><path class="cls-1" d="M47.44,81.16c0-.53,.37-.88,.9-.88s.89,.35,.89,.88-.37,.89-.89,.89-.9-.35-.9-.89Zm.13,1.88h1.54v6.16h-1.54v-6.16Z"/><path class="cls-1" d="M50.64,83.04h1.25l.11,.81h.03c.51-.53,1.11-.97,1.9-.97,1.27,0,1.81,.92,1.81,2.47v3.84h-1.54v-3.64c0-.96-.25-1.29-.83-1.29-.48,0-.78,.24-1.21,.69v4.23h-1.54v-6.16Z"/><path class="cls-1" d="M57.46,87.04v-2.73h-.83v-1.2l.91-.08,.18-1.66h1.27v1.66h1.44v1.28h-1.44v2.73c0,.71,.27,1.04,.79,1.04,.19,0,.42-.07,.58-.13l.25,1.18c-.31,.11-.72,.23-1.23,.23-1.39,0-1.92-.94-1.92-2.31Z"/><path class="cls-1" d="M60.96,86.12c0-1.99,1.34-3.23,2.73-3.23,1.61,0,2.45,1.24,2.45,2.94,0,.31-.03,.61-.07,.75h-3.61c.13,1.01,.75,1.54,1.62,1.54,.48,0,.9-.15,1.32-.43l.52,.99c-.57,.42-1.32,.68-2.04,.68-1.64,0-2.92-1.2-2.92-3.23Zm3.86-.63c0-.82-.36-1.35-1.11-1.35-.62,0-1.16,.46-1.28,1.35h2.38Z"/><path class="cls-1" d="M67.3,83.04h1.25l.11,.81h.03c.51-.53,1.11-.97,1.9-.97,1.27,0,1.81,.92,1.81,2.47v3.84h-1.54v-3.64c0-.96-.25-1.29-.83-1.29-.48,0-.78,.24-1.21,.69v4.23h-1.54v-6.16Z"/><path class="cls-1" d="M73.34,88.48l.7-1.01c.52,.43,1.02,.67,1.57,.67,.58,0,.85-.27,.85-.65,0-.46-.61-.67-1.22-.92-.74-.3-1.57-.77-1.57-1.8,0-1.1,.85-1.88,2.18-1.88,.85,0,1.51,.38,1.99,.76l-.69,.98c-.42-.32-.83-.53-1.25-.53-.53,0-.78,.24-.78,.59,0,.45,.54,.62,1.16,.86,.77,.31,1.63,.71,1.63,1.86,0,1.08-.81,1.95-2.33,1.95-.78,0-1.64-.36-2.23-.87Z"/><path class="cls-1" d="M78.84,81.16c0-.53,.37-.88,.9-.88s.89,.35,.89,.88-.37,.89-.89,.89-.9-.35-.9-.89Zm.13,1.88h1.54v6.16h-1.54v-6.16Z"/><path class="cls-1" d="M82.3,84.31h-.78v-1.2l.78-.06v-.51c0-1.29,.56-2.28,2.04-2.28,.45,0,.85,.11,1.11,.21l-.28,1.2c-.2-.09-.43-.13-.62-.13-.46,0-.71,.29-.71,.97v.53h1.1v1.28h-1.1v4.88h-1.54v-4.88Zm3.5-3.16c0-.53,.36-.88,.89-.88s.9,.35,.9,.88-.37,.89-.9,.89-.89-.35-.89-.89Zm.13,1.88h1.53v6.16h-1.53v-6.16Z"/><path class="cls-1" d="M88.64,86.12c0-1.99,1.34-3.23,2.73-3.23,1.61,0,2.45,1.24,2.45,2.94,0,.31-.03,.61-.07,.75h-3.61c.13,1.01,.75,1.54,1.62,1.54,.48,0,.9-.15,1.32-.43l.52,.99c-.57,.42-1.32,.68-2.04,.68-1.64,0-2.92-1.2-2.92-3.23Zm3.86-.63c0-.82-.36-1.35-1.11-1.35-.62,0-1.16,.46-1.28,1.35h2.38Z"/><path class="cls-1" d="M94.64,86.12c0-2,1.19-3.23,2.46-3.23,.66,0,1.07,.26,1.48,.67l-.05-.97v-2.17h1.53v8.78h-1.24l-.11-.64h-.04c-.43,.44-1.01,.79-1.62,.79-1.45,0-2.39-1.21-2.39-3.23Zm3.89,1.27v-2.71c-.36-.34-.73-.46-1.1-.46-.66,0-1.21,.66-1.21,1.89s.44,1.92,1.21,1.92c.41,0,.75-.18,1.1-.64Z"/><path class="cls-1" d="M34.98,99.04v-2.73h-.83v-1.2l.91-.08,.18-1.66h1.27v1.66h1.44v1.28h-1.44v2.73c0,.71,.27,1.04,.79,1.04,.19,0,.42-.07,.58-.13l.25,1.18c-.31,.11-.72,.23-1.23,.23-1.39,0-1.92-.94-1.92-2.31Z"/><path class="cls-1" d="M39.05,95.04h1.25l.11,1.09h.03c.43-.8,1.06-1.24,1.66-1.24,.32,0,.51,.05,.69,.13l-.26,1.4c-.21-.07-.38-.1-.62-.1-.46,0-1.01,.32-1.34,1.21v3.67h-1.54v-6.16Z"/><path class="cls-1" d="M43.01,98.12c0-1.99,1.34-3.23,2.73-3.23,1.61,0,2.45,1.24,2.45,2.94,0,.31-.03,.61-.07,.75h-3.61c.13,1.01,.75,1.54,1.62,1.54,.48,0,.9-.15,1.32-.43l.52,.99c-.57,.42-1.32,.68-2.04,.68-1.64,0-2.92-1.2-2.92-3.23Zm3.86-.63c0-.82-.36-1.35-1.11-1.35-.62,0-1.16,.46-1.28,1.35h2.38Z"/><path class="cls-1" d="M48.91,99.52c0-1.32,1.01-2.01,3.38-2.28-.03-.61-.28-1.07-1-1.07-.54,0-1.07,.25-1.61,.58l-.55-1.07c.69-.45,1.53-.81,2.45-.81,1.48,0,2.25,.94,2.25,2.72v3.6h-1.25l-.1-.66h-.04c-.51,.46-1.1,.81-1.77,.81-1.04,0-1.73-.78-1.73-1.83Zm3.38-.04v-1.24c-1.43,.19-1.91,.61-1.91,1.15,0,.48,.32,.69,.77,.69s.76-.22,1.14-.6Z"/><path class="cls-1" d="M55.3,99.04v-2.73h-.83v-1.2l.91-.08,.18-1.66h1.27v1.66h1.44v1.28h-1.44v2.73c0,.71,.27,1.04,.79,1.04,.19,0,.42-.07,.58-.13l.25,1.18c-.31,.11-.72,.23-1.23,.23-1.39,0-1.92-.94-1.92-2.31Z"/><path class="cls-1" d="M59.36,95.04h1.25l.11,.82h.03c.49-.54,1.03-.98,1.8-.98,.84,0,1.33,.4,1.61,1.08,.53-.59,1.1-1.08,1.86-1.08,1.24,0,1.82,.92,1.82,2.47v3.84h-1.54v-3.64c0-.96-.26-1.29-.81-1.29-.33,0-.71,.23-1.13,.69v4.23h-1.53v-3.64c0-.96-.27-1.29-.83-1.29-.33,0-.71,.23-1.12,.69v4.23h-1.54v-6.16Z"/><path class="cls-1" d="M68.97,98.12c0-1.99,1.34-3.23,2.73-3.23,1.61,0,2.45,1.24,2.45,2.94,0,.31-.03,.61-.07,.75h-3.61c.13,1.01,.75,1.54,1.62,1.54,.48,0,.9-.15,1.32-.43l.52,.99c-.57,.42-1.32,.68-2.04,.68-1.64,0-2.92-1.2-2.92-3.23Zm3.86-.63c0-.82-.36-1.35-1.11-1.35-.62,0-1.16,.46-1.28,1.35h2.38Z"/><path class="cls-1" d="M75.31,95.04h1.25l.11,.81h.03c.51-.53,1.11-.97,1.9-.97,1.27,0,1.81,.92,1.81,2.47v3.84h-1.54v-3.64c0-.96-.25-1.29-.83-1.29-.48,0-.78,.24-1.21,.69v4.23h-1.54v-6.16Z"/><path class="cls-1" d="M82.13,99.04v-2.73h-.83v-1.2l.91-.08,.18-1.66h1.27v1.66h1.44v1.28h-1.44v2.73c0,.71,.27,1.04,.79,1.04,.19,0,.42-.07,.58-.13l.25,1.18c-.31,.11-.72,.23-1.23,.23-1.39,0-1.92-.94-1.92-2.31Z"/></g><g><path class="cls-3" d="M64.52,70.22h-24.87c-1.31,0-2.37-1.04-2.37-2.33V24.82c0-1.29,1.06-2.33,2.37-2.33h4.74"/><path class="cls-3" d="M72.81,22.49h4.74c1.31,0,2.37,1.04,2.37,2.33v16.3"/><polyline class="cls-3" points="60.96 65.57 42.01 65.57 42.01 27.15 44.38 27.15"/><polyline class="cls-3" points="72.81 27.15 75.18 27.15 75.18 41.12"/><path class="cls-3" d="M66.88,21.32h-3.55c0-2.57-2.12-4.66-4.74-4.66s-4.74,2.08-4.74,4.66h-3.55c-1.96,0-3.55,1.56-3.55,3.49v3.49h23.69v-3.49c0-1.93-1.59-3.49-3.55-3.49Z"/><line class="cls-3" x1="58.59" y1="20.16" x2="58.59" y2="22.49"/><ellipse class="cls-3" cx="75.18" cy="57.42" rx="13.03" ry="12.81"/><polyline class="cls-3" points="49.12 37.62 51.49 39.95 56.22 34.13"/><polyline class="cls-3" points="49.12 46.94 51.49 49.27 56.22 43.45"/><polyline class="cls-3" points="49.12 56.25 51.49 58.58 56.22 52.76"/><polygon class="cls-3" points="77.54 55.09 77.54 50.43 72.81 50.43 72.81 55.09 68.07 55.09 68.07 59.74 72.81 59.74 72.81 64.4 77.54 64.4 77.54 59.74 82.28 59.74 82.28 55.09 77.54 55.09"/></g></g></g></svg>