<?xml version="1.0" encoding="UTF-8"?><svg id="Layer_2" xmlns="http://www.w3.org/2000/svg" viewBox="0 0 37.49 34.85"><defs><style>.cls-1{fill:#93adff;}</style></defs><g id="Layer_1-2"><path class="cls-1" d="M37.06,17.51L19.59,.41c-.57-.55-1.47-.55-2.03,0L.43,17.52c-.91,.91-.27,2.47,1.02,2.47h1.9c.8,0,1.44,.65,1.44,1.44v11.97c0,.8,.65,1.44,1.44,1.44h6.98c.8,0,1.44-.65,1.44-1.44v-7.83c0-.8,.65-1.44,1.44-1.44h4.59c.8,0,1.44,.65,1.44,1.44v7.83c0,.8,.65,1.44,1.44,1.44h7.34c.8,0,1.44-.65,1.44-1.44v-11.97c0-.8,.65-1.44,1.44-1.44h2.24c1.29,0,1.93-1.57,1.01-2.48Z"/></g></svg>