<?xml version="1.0" encoding="UTF-8"?><svg id="Layer_2" xmlns="http://www.w3.org/2000/svg" viewBox="0 0 119.54 119.54"><defs><style>.cls-1{fill:#fff;}.cls-2{fill:#7e90ff;}.cls-3{fill:none;stroke:#fff;stroke-miterlimit:10;stroke-width:1.61px;}</style></defs><g id="Layer_1-2"><g><circle class="cls-2" cx="59.77" cy="59.77" r="59.77"/><g><g><path class="cls-3" d="M80.44,70.64H33.72c0-3.11,2.52-5.64,5.64-5.64h35.44c3.11,0,5.64,2.52,5.64,5.64h0Z"/><g><rect class="cls-3" x="48.74" y="32.53" width="16.11" height="6.44" transform="translate(-.69 70.38) rotate(-63.26)"/><rect class="cls-3" x="50.84" y="39.55" width="3.22" height="9.67" transform="translate(-10.79 71.24) rotate(-63.26)"/><rect class="cls-3" x="59.09" y="24.79" width="4.83" height="3.22" transform="translate(10.26 69.44) rotate(-63.25)"/><rect class="cls-3" x="61.71" y="19.58" width="3.22" height="6.44" transform="translate(14.46 69.09) rotate(-63.26)"/></g><path class="cls-3" d="M63.52,52.92c-6.67,0-12.08,5.41-12.08,12.08h24.16c0-6.67-5.41-12.08-12.08-12.08Z"/><path class="cls-3" d="M58.67,39.27c.27-.03,.55-.04,.82-.04,4.45,0,8.05,3.61,8.05,8.05,0,2.26-.93,4.29-2.43,5.76,2.88,.38,5.44,1.78,7.3,3.82,1.99-2.68,3.18-5.98,3.18-9.58,0-7.78-5.52-14.27-12.85-15.78"/><path class="cls-3" d="M57.08,54.53h-16.11v4.83h11.87c.96-1.81,2.36-3.34,4.06-4.46-.31-.11,.47-.23,.18-.37Z"/><circle class="cls-3" cx="63.52" cy="57.75" r="1.61"/></g><g><path class="cls-1" d="M21.6,81.04h1.71l1.32,3.82c.17,.51,.31,1.05,.47,1.56h.05c.17-.52,.3-1.06,.47-1.56l1.29-3.82h1.71v8.15h-1.41v-3.4c0-.77,.12-1.9,.2-2.67h-.05l-.63,1.92-1.19,3.42h-.89l-1.2-3.42-.62-1.92h-.04c.07,.77,.2,1.9,.2,2.67v3.4h-1.39v-8.15Z"/><path class="cls-1" d="M29.93,86.12c0-1.99,1.34-3.23,2.73-3.23,1.61,0,2.45,1.24,2.45,2.94,0,.31-.03,.61-.07,.75h-3.61c.12,1.01,.75,1.54,1.62,1.54,.48,0,.9-.15,1.32-.43l.52,.99c-.57,.42-1.32,.68-2.04,.68-1.64,0-2.92-1.2-2.92-3.23Zm3.86-.63c0-.82-.36-1.35-1.11-1.35-.62,0-1.16,.46-1.28,1.35h2.38Z"/><path class="cls-1" d="M35.93,86.12c0-2,1.19-3.23,2.46-3.23,.66,0,1.07,.26,1.48,.67l-.05-.97v-2.17h1.53v8.78h-1.24l-.12-.64h-.04c-.43,.44-1.01,.79-1.62,.79-1.45,0-2.39-1.21-2.39-3.23Zm3.89,1.26v-2.71c-.36-.34-.73-.46-1.1-.46-.66,0-1.21,.66-1.21,1.89s.44,1.92,1.21,1.92c.41,0,.75-.18,1.1-.64Z"/><path class="cls-1" d="M42.77,81.15c0-.53,.37-.88,.9-.88s.89,.35,.89,.88-.37,.89-.89,.89-.9-.35-.9-.89Zm.12,1.88h1.54v6.16h-1.54v-6.16Z"/><path class="cls-1" d="M45.6,86.12c0-2.05,1.4-3.23,2.99-3.23,.72,0,1.28,.3,1.7,.68l-.73,1.04c-.29-.26-.56-.41-.89-.41-.9,0-1.5,.76-1.5,1.92s.62,1.91,1.45,1.91c.42,0,.82-.21,1.14-.5l.62,1.07c-.56,.52-1.28,.75-1.92,.75-1.62,0-2.85-1.19-2.85-3.23Z"/><path class="cls-1" d="M50.96,87.52c0-1.32,1.01-2.01,3.38-2.28-.03-.61-.28-1.07-1-1.07-.54,0-1.07,.25-1.61,.58l-.55-1.07c.69-.45,1.53-.81,2.45-.81,1.48,0,2.25,.93,2.25,2.72v3.6h-1.25l-.1-.66h-.04c-.51,.46-1.1,.81-1.77,.81-1.04,0-1.73-.78-1.73-1.83Zm3.38-.04v-1.24c-1.43,.19-1.91,.6-1.91,1.15,0,.48,.32,.69,.77,.69s.76-.22,1.14-.6Z"/><path class="cls-1" d="M57.33,87.47v-7.05h1.54v7.12c0,.37,.16,.5,.3,.5,.06,0,.11,0,.21-.02l.19,1.2c-.18,.08-.43,.14-.79,.14-1.07,0-1.44-.74-1.44-1.88Z"/><path class="cls-1" d="M62.91,81.04h1.55v8.15h-1.55v-8.15Z"/><path class="cls-1" d="M66.13,83.03h1.25l.12,.81h.03c.51-.53,1.11-.97,1.9-.97,1.27,0,1.81,.92,1.81,2.47v3.84h-1.54v-3.64c0-.96-.25-1.29-.83-1.29-.48,0-.78,.24-1.21,.69v4.24h-1.54v-6.16Z"/><path class="cls-1" d="M76.28,89.6l.05-.99c-.4,.43-.97,.74-1.55,.74-1.45,0-2.39-1.21-2.39-3.23s1.19-3.23,2.46-3.23c.65,0,1.12,.24,1.59,.76h.04l.13-.61h1.2v8.53h-1.53v-1.96Zm0-2.22v-2.71c-.36-.34-.73-.46-1.1-.46-.66,0-1.21,.66-1.21,1.89s.44,1.92,1.21,1.92c.41,0,.75-.18,1.1-.64Z"/><path class="cls-1" d="M79.29,86.88v-3.85h1.54v3.64c0,.95,.25,1.29,.81,1.29,.48,0,.79-.22,1.19-.77v-4.16h1.54v6.16h-1.25l-.12-.88h-.04c-.5,.63-1.07,1.03-1.86,1.03-1.26,0-1.81-.92-1.81-2.46Z"/><path class="cls-1" d="M85.79,81.15c0-.53,.37-.88,.9-.88s.89,.35,.89,.88-.37,.89-.89,.89-.9-.35-.9-.89Zm.12,1.88h1.54v6.16h-1.54v-6.16Z"/><path class="cls-1" d="M88.99,83.03h1.25l.12,1.09h.03c.43-.8,1.06-1.24,1.66-1.24,.32,0,.51,.05,.69,.13l-.26,1.4c-.21-.07-.38-.1-.62-.1-.46,0-1.01,.32-1.34,1.21v3.67h-1.54v-6.16Z"/><path class="cls-1" d="M93.3,91.55l.28-1.24c.1,.03,.27,.08,.41,.08,.6,0,.93-.4,1.1-.94l.1-.36-2.28-6.05h1.55l.93,2.86c.18,.55,.32,1.14,.49,1.74h.05c.14-.57,.28-1.17,.42-1.74l.81-2.86h1.47l-2.08,6.35c-.51,1.45-1.14,2.29-2.45,2.29-.34,0-.57-.04-.8-.12Z"/></g></g></g></g></svg>