<?xml version="1.0" encoding="UTF-8"?><svg id="Layer_2" xmlns="http://www.w3.org/2000/svg" viewBox="0 0 119.54 119.54"><defs><style>.cls-1{fill:#fff;}.cls-2{fill:#c080ff;}.cls-3{fill:none;stroke:#fff;stroke-miterlimit:10;stroke-width:1.61px;}</style></defs><g id="Layer_1-2"><g><circle class="cls-2" cx="59.77" cy="59.77" r="59.77"/><g><path class="cls-3" d="M42.93,37.62c0,2.23-1.8,4.03-4.03,4.03s-4.03-1.8-4.03-4.03,4.03-7.25,4.03-7.25c0,0,4.03,5.02,4.03,7.25Z"/><path class="cls-3" d="M72.73,47.28l1.61-2.42h-8.05l1.61,2.42c0,6.44-1.34,6.4-3.22,9.67-2.36,4.1-4.83,9.55-4.83,10.47,0,1.94,1.28,3.22,3.22,3.22h14.5c1.94,0,3.22-1.28,3.22-3.22,0-.92-2.47-6.38-4.83-10.47-1.89-3.27-3.22-3.22-3.22-9.67Z"/><path class="cls-3" d="M34.07,46.48h9.67l-1.61,2.42v18.53c0,1.77-1.21,3.22-2.98,3.22h-.24c-1.77,0-3.22-1.45-3.22-3.22v-18.53l-1.61-2.42Z"/><path class="cls-3" d="M48.57,51.31h8.05l-.81,2.42v13.69c0,1.77-1.21,3.22-2.98,3.22h-.24c-1.77,0-3.22-1.45-3.22-3.22v-13.69l-.81-2.42Z"/><line class="cls-3" x1="38.9" y1="29.56" x2="47.76" y2="29.56"/><rect class="cls-3" x="47.76" y="27.95" width="3.22" height="3.22"/><rect class="cls-3" x="50.98" y="25.53" width="18.53" height="8.05"/><line class="cls-3" x1="69.51" y1="23.12" x2="69.51" y2="36.01"/><rect class="cls-3" x="69.51" y="27.95" width="11.28" height="3.22"/><line class="cls-3" x1="80.79" y1="25.53" x2="80.79" y2="33.59"/><line class="cls-3" x1="54.21" y1="28.76" x2="54.21" y2="33.59"/><line class="cls-3" x1="57.43" y1="30.37" x2="57.43" y2="33.59"/><line class="cls-3" x1="60.65" y1="28.76" x2="60.65" y2="33.59"/><line class="cls-3" x1="63.87" y1="30.37" x2="63.87" y2="33.59"/></g><g><path class="cls-1" d="M39.92,81.04h2.54c1.71,0,3.03,.64,3.03,2.56s-1.33,2.7-2.99,2.7h-1.04v2.89h-1.55v-8.15Zm2.48,3.97c1.07,0,1.58-.47,1.58-1.41s-.56-1.26-1.63-1.26h-.88v2.67h.93Z"/><path class="cls-1" d="M46.53,81.15c0-.53,.37-.88,.9-.88s.89,.35,.89,.88-.37,.89-.89,.89-.9-.35-.9-.89Zm.13,1.88h1.54v6.16h-1.54v-6.16Z"/><path class="cls-1" d="M49.73,83.04h1.25l.11,.64h.03c.49-.44,1.1-.79,1.72-.79,1.44,0,2.3,1.24,2.3,3.13,0,2.11-1.2,3.33-2.49,3.33-.51,0-1-.24-1.45-.67l.05,1.01v1.87h-1.54v-8.53Zm3.85,3c0-1.18-.36-1.83-1.16-1.83-.4,0-.75,.21-1.15,.64v2.71c.37,.34,.74,.46,1.06,.46,.71,0,1.25-.64,1.25-1.98Z"/><path class="cls-1" d="M56,86.12c0-1.99,1.34-3.23,2.73-3.23,1.61,0,2.45,1.24,2.45,2.94,0,.31-.03,.61-.07,.75h-3.61c.12,1.01,.75,1.54,1.62,1.54,.48,0,.9-.15,1.32-.43l.52,.99c-.57,.42-1.32,.68-2.04,.68-1.64,0-2.92-1.2-2.92-3.23Zm3.86-.63c0-.82-.36-1.35-1.11-1.35-.62,0-1.16,.46-1.28,1.35h2.38Z"/><path class="cls-1" d="M62.33,87.47v-7.05h1.54v7.12c0,.37,.16,.5,.3,.5,.06,0,.1,0,.21-.02l.19,1.2c-.18,.08-.43,.14-.79,.14-1.07,0-1.44-.74-1.44-1.88Z"/><path class="cls-1" d="M65.4,81.15c0-.53,.37-.88,.9-.88s.89,.35,.89,.88-.37,.89-.89,.89-.9-.35-.9-.89Zm.12,1.88h1.54v6.16h-1.54v-6.16Z"/><path class="cls-1" d="M68.6,83.04h1.25l.11,.81h.03c.51-.53,1.11-.97,1.9-.97,1.27,0,1.81,.92,1.81,2.47v3.84h-1.54v-3.64c0-.96-.25-1.29-.83-1.29-.48,0-.79,.24-1.21,.69v4.24h-1.54v-6.16Z"/><path class="cls-1" d="M74.83,86.12c0-1.99,1.34-3.23,2.73-3.23,1.61,0,2.45,1.24,2.45,2.94,0,.31-.03,.61-.07,.75h-3.61c.13,1.01,.75,1.54,1.62,1.54,.48,0,.9-.15,1.32-.43l.52,.99c-.58,.42-1.32,.68-2.04,.68-1.64,0-2.92-1.2-2.92-3.23Zm3.86-.63c0-.82-.36-1.35-1.11-1.35-.62,0-1.16,.46-1.28,1.35h2.38Z"/></g></g></g></svg>