<?xml version="1.0" encoding="UTF-8"?><svg id="Layer_2" xmlns="http://www.w3.org/2000/svg" viewBox="0 0 119.54 119.54"><defs><style>.cls-1{stroke-linejoin:round;}.cls-1,.cls-2{fill:none;stroke:#fff;stroke-width:1.61px;}.cls-3{fill:#fff;}.cls-4{fill:#ff7ef6;}.cls-2{stroke-miterlimit:10;}</style></defs><g id="Layer_1-2"><g><circle class="cls-4" cx="59.77" cy="59.77" r="59.77"/><g><polygon class="cls-2" points="64.73 55.34 60.7 55.34 60.7 51.31 55.87 51.31 55.87 55.34 51.84 55.34 51.84 60.17 55.87 60.17 55.87 64.2 60.7 64.2 60.7 60.17 64.73 60.17 64.73 55.34"/><polygon class="cls-2" points="78.42 70.64 78.42 45.67 60.7 45.67 59.09 41.64 45.4 41.64 43.79 45.67 38.15 45.67 38.15 70.64 78.42 70.64"/><polyline class="cls-1" points="69.56 38.42 84.06 38.42 78.42 70.64"/><g><polygon class="cls-1" points="60.7 24.73 60.7 33.59 69.56 33.59 60.7 24.73"/><polyline class="cls-1" points="69.56 45.67 69.56 33.59 60.7 24.73 41.37 24.73 41.37 45.67"/></g></g><g><path class="cls-3" d="M35.4,81.05h2.7c1.62,0,2.91,.61,2.91,2.47,0,1.22-.59,1.98-1.47,2.34l1.81,3.33h-1.72l-1.59-3.08h-1.08v3.08h-1.55v-8.15Zm2.55,3.79c.99,0,1.55-.44,1.55-1.31s-.55-1.18-1.55-1.18h-1v2.49h1Z"/><path class="cls-3" d="M41.81,86.12c0-1.99,1.34-3.23,2.73-3.23,1.61,0,2.45,1.24,2.45,2.94,0,.31-.03,.61-.07,.75h-3.61c.13,1.01,.75,1.54,1.62,1.54,.48,0,.9-.15,1.32-.43l.52,.99c-.58,.42-1.32,.68-2.04,.68-1.64,0-2.92-1.2-2.92-3.23Zm3.86-.63c0-.82-.36-1.35-1.11-1.35-.62,0-1.16,.46-1.28,1.35h2.38Z"/><path class="cls-3" d="M48.35,84.31h-.78v-1.2l.78-.07v-.51c0-1.29,.56-2.28,2.04-2.28,.45,0,.85,.11,1.11,.21l-.28,1.2c-.2-.09-.43-.13-.62-.13-.46,0-.71,.29-.71,.97v.53h1.1v1.28h-1.1v4.88h-1.54v-4.88Z"/><path class="cls-3" d="M51.39,86.12c0-1.99,1.34-3.23,2.73-3.23,1.61,0,2.45,1.24,2.45,2.94,0,.31-.03,.61-.07,.75h-3.61c.12,1.01,.75,1.54,1.62,1.54,.48,0,.9-.15,1.32-.43l.52,.99c-.57,.42-1.32,.68-2.04,.68-1.64,0-2.92-1.2-2.92-3.23Zm3.86-.63c0-.82-.36-1.35-1.11-1.35-.62,0-1.16,.46-1.28,1.35h2.38Z"/><path class="cls-3" d="M57.72,83.04h1.25l.11,1.09h.03c.43-.8,1.06-1.24,1.66-1.24,.32,0,.51,.05,.69,.13l-.26,1.4c-.21-.06-.38-.1-.62-.1-.46,0-1.01,.32-1.34,1.21v3.68h-1.54v-6.16Z"/><path class="cls-3" d="M61.69,86.12c0-1.99,1.34-3.23,2.73-3.23,1.61,0,2.45,1.24,2.45,2.94,0,.31-.03,.61-.07,.75h-3.61c.13,1.01,.75,1.54,1.62,1.54,.48,0,.9-.15,1.32-.43l.52,.99c-.58,.42-1.32,.68-2.04,.68-1.64,0-2.92-1.2-2.92-3.23Zm3.86-.63c0-.82-.36-1.35-1.11-1.35-.62,0-1.16,.46-1.28,1.35h2.38Z"/><path class="cls-3" d="M68.02,83.04h1.25l.11,.81h.03c.51-.53,1.11-.97,1.9-.97,1.27,0,1.81,.92,1.81,2.47v3.84h-1.54v-3.64c0-.96-.25-1.29-.83-1.29-.48,0-.78,.24-1.21,.69v4.24h-1.54v-6.16Z"/><path class="cls-3" d="M74.25,86.12c0-2.05,1.4-3.23,2.99-3.23,.72,0,1.28,.3,1.7,.68l-.73,1.04c-.29-.26-.56-.41-.89-.41-.9,0-1.5,.76-1.5,1.92s.62,1.91,1.45,1.91c.42,0,.82-.21,1.14-.5l.62,1.07c-.56,.52-1.28,.75-1.92,.75-1.62,0-2.85-1.19-2.85-3.23Z"/><path class="cls-3" d="M79.35,86.12c0-1.99,1.34-3.23,2.73-3.23,1.61,0,2.45,1.24,2.45,2.94,0,.31-.03,.61-.07,.75h-3.61c.13,1.01,.75,1.54,1.62,1.54,.48,0,.9-.15,1.32-.43l.52,.99c-.58,.42-1.32,.68-2.04,.68-1.64,0-2.92-1.2-2.92-3.23Zm3.86-.63c0-.82-.36-1.35-1.11-1.35-.62,0-1.16,.46-1.28,1.35h2.38Z"/></g></g></g></svg>